<svg style ="displey:none" xmlns="http://www.w3.org/2000/svg">

 
<symbol id="handGround" viewbox="0 0 55 49">
    <path fill-rule="evenodd"  
 d="M40.782,48.299 C38.615,44.590 35.417,42.903 31.205,42.922 C28.804,42.937 26.404,42.842 24.009,42.950 C21.899,43.045 19.936,42.730 18.089,41.691 C17.220,41.201 16.240,41.039 15.276,40.820 C12.944,40.292 10.669,39.589 8.334,39.012 C5.051,38.201 4.271,37.732 1.850,36.774 C1.454,36.617 0.971,36.744 0.780,36.255 C0.601,35.784 0.573,35.291 0.911,34.888 C1.497,34.192 2.090,33.857 3.143,33.918 C3.221,33.921 3.315,33.921 3.379,33.885 C5.272,32.816 5.269,33.541 7.193,33.699 L12.606,34.392 C13.560,34.321 20.716,36.056 21.127,35.236 C18.913,35.236 16.332,33.509 16.647,33.094 C17.211,32.349 17.998,32.017 18.946,32.020 C21.156,32.027 23.334,32.098 25.501,32.752 C27.125,33.245 28.796,33.164 30.486,32.487 C33.243,31.384 36.205,31.024 38.804,32.715 C42.007,34.801 45.046,37.150 47.370,40.302 C50.070,43.973 51.375,44.811 54.330,48.272 L40.782,48.299 ZM43.393,14.878 C43.001,15.289 42.592,15.842 42.152,16.451 C41.275,17.641 40.120,18.916 38.598,19.843 C37.843,20.302 37.026,20.712 36.168,20.990 C35.315,21.285 34.435,21.476 33.615,21.583 C32.880,21.671 31.202,21.894 30.683,21.870 C31.082,21.259 31.501,20.643 31.981,20.066 C32.297,19.640 32.671,19.269 33.019,18.886 C33.367,18.499 33.767,18.184 34.128,17.842 C34.511,17.533 34.904,17.263 35.272,16.992 C35.668,16.772 36.045,16.564 36.390,16.373 C36.762,16.236 37.104,16.107 37.408,15.996 C37.705,15.860 37.995,15.862 38.219,15.804 C38.680,15.721 38.944,15.673 38.944,15.673 C38.944,15.673 38.678,15.701 38.212,15.752 C37.982,15.792 37.685,15.771 37.376,15.885 C37.060,15.977 36.702,16.083 36.313,16.195 C35.944,16.365 35.546,16.548 35.120,16.743 C34.730,16.992 34.302,17.241 33.883,17.529 C33.493,17.853 33.053,18.151 32.665,18.520 C32.280,18.888 31.864,19.245 31.514,19.655 C31.092,20.106 30.697,20.571 30.322,21.041 C30.318,20.971 30.306,20.899 30.309,20.826 C30.302,20.137 30.438,19.275 30.734,18.365 C31.040,17.462 31.525,16.537 32.184,15.697 C32.832,14.837 33.677,14.095 34.630,13.489 C35.589,12.893 36.664,12.438 37.793,12.230 C38.913,12.002 40.075,12.007 41.098,12.236 C42.123,12.468 42.984,12.933 43.473,13.389 C43.725,13.593 43.880,13.850 43.979,13.994 C44.070,14.149 44.118,14.235 44.118,14.235 C44.118,14.235 44.042,14.291 43.902,14.394 C43.768,14.493 43.580,14.702 43.393,14.878 ZM29.932,22.353 C29.771,22.615 29.632,22.868 29.487,23.121 C34.808,23.991 39.194,27.637 41.111,32.526 C40.760,32.289 40.413,32.059 40.080,31.843 C37.384,30.085 34.047,29.943 30.248,31.464 C28.928,31.994 27.627,32.065 26.357,31.683 C23.947,30.953 21.563,30.886 19.310,30.879 C17.809,30.879 16.567,31.477 15.712,32.607 C15.497,32.887 15.377,33.222 15.353,33.567 C14.194,33.361 13.516,33.254 13.072,33.251 L12.715,33.206 C14.441,28.104 18.809,24.225 24.192,23.197 C24.092,23.024 24.003,22.857 23.896,22.681 C23.747,22.442 23.450,21.799 23.490,21.645 C23.507,21.552 23.503,21.460 23.507,21.369 C23.132,20.899 22.737,20.432 22.315,19.983 C21.960,19.573 21.546,19.216 21.161,18.848 C20.774,18.478 20.335,18.180 19.944,17.858 C19.523,17.570 19.097,17.317 18.706,17.071 C18.282,16.877 17.883,16.693 17.512,16.523 C17.122,16.409 16.766,16.304 16.451,16.213 C16.140,16.100 15.846,16.121 15.614,16.079 C15.149,16.030 14.884,16.002 14.884,16.002 C14.884,16.002 15.145,16.048 15.606,16.132 C15.832,16.191 16.121,16.189 16.419,16.324 C16.721,16.438 17.063,16.564 17.436,16.701 C17.781,16.893 18.159,17.101 18.554,17.320 C18.919,17.591 19.315,17.861 19.700,18.170 C20.058,18.512 20.459,18.828 20.808,19.213 C21.155,19.599 21.528,19.969 21.843,20.395 C22.325,20.972 22.745,21.585 23.142,22.196 C22.625,22.222 20.945,21.999 20.209,21.912 C19.391,21.805 18.510,21.615 17.660,21.319 C16.797,21.040 15.984,20.631 15.228,20.171 C13.706,19.244 12.550,17.969 11.674,16.778 C11.233,16.170 10.826,15.618 10.435,15.207 C10.247,15.029 10.058,14.821 9.923,14.723 C9.783,14.616 9.709,14.561 9.709,14.561 C9.709,14.561 9.758,14.478 9.847,14.322 C9.945,14.178 10.103,13.922 10.354,13.717 C10.842,13.261 11.707,12.796 12.730,12.565 C13.753,12.334 14.918,12.331 16.035,12.558 C17.165,12.766 18.239,13.223 19.199,13.817 C20.154,14.423 20.996,15.166 21.643,16.025 C22.305,16.865 22.790,17.790 23.095,18.693 C23.392,19.604 23.528,20.465 23.520,21.153 C23.524,21.227 23.509,21.297 23.508,21.368 C23.970,21.952 24.379,22.528 24.759,23.093 C25.502,22.981 26.264,22.917 27.038,22.917 C27.131,22.917 27.218,22.937 27.312,22.939 C27.420,22.442 27.524,21.934 27.618,21.398 C27.677,21.029 27.940,20.128 28.113,20.013 C28.211,19.933 28.285,19.840 28.370,19.752 C28.316,20.894 28.201,21.982 28.063,22.997 C28.330,23.016 28.601,23.026 28.865,23.059 C29.294,22.407 29.780,21.722 30.322,21.041 C30.325,21.133 30.322,21.224 30.338,21.319 C30.378,21.470 30.080,22.114 29.932,22.353 ZM30.285,16.733 C29.787,17.894 29.171,18.872 28.567,19.551 C28.506,19.627 28.432,19.685 28.367,19.754 C28.404,18.960 28.417,18.154 28.386,17.339 C28.391,16.621 28.290,15.906 28.227,15.203 C28.163,14.502 27.985,13.821 27.876,13.161 C27.708,12.508 27.502,11.888 27.328,11.303 C27.075,10.740 26.838,10.211 26.618,9.720 C26.330,9.270 26.065,8.856 25.831,8.490 C25.623,8.106 25.306,7.871 25.113,7.629 C24.696,7.174 24.455,6.916 24.455,6.916 C24.455,6.916 24.676,7.192 25.061,7.676 C25.234,7.928 25.526,8.179 25.704,8.574 C25.907,8.950 26.136,9.374 26.387,9.835 C26.565,10.326 26.757,10.858 26.964,11.423 C27.089,12.009 27.247,12.622 27.363,13.263 C27.421,13.914 27.545,14.577 27.557,15.265 C27.570,15.949 27.616,16.642 27.560,17.340 C27.537,18.332 27.420,19.308 27.284,20.262 C26.748,19.835 25.270,18.154 24.615,17.428 C23.893,16.608 23.183,15.652 22.595,14.619 C21.980,13.593 21.528,12.478 21.177,11.362 C20.470,9.119 20.427,6.843 20.593,4.896 C20.684,3.907 20.759,3.002 20.726,2.253 C20.692,1.912 20.686,1.544 20.638,1.328 C20.593,1.101 20.564,0.980 20.564,0.980 C20.564,0.980 20.684,0.941 20.909,0.865 C21.131,0.805 21.511,0.686 21.940,0.702 C22.823,0.673 24.083,0.960 25.303,1.621 C26.521,2.282 27.682,3.290 28.596,4.488 C29.538,5.676 30.212,7.067 30.649,8.493 C31.071,9.925 31.266,11.398 31.163,12.814 C31.089,14.225 30.766,15.570 30.285,16.733 Z"/>
        </symbol>
  <symbol id="planet" viewbox="0 0 53 53.16">
         <path  d="M629.081,2179.4c0.641,0.04,1.284.09,1.917,0.11a19.053,19.053,0,0,1-14.611,8.46c0.3-.58.6-1.18,0.886-1.78a16.714,16.714,0,0,0,4.427-1.17,0.3,0.3,0,0,0,.039-0.08,1.207,1.207,0,0,1,.213-0.37l-0.084-.21,0.185-.26a2.647,2.647,0,0,1,.34-0.45c0.131-.1,1.229-1.05,1.468-1.23,0.207-.16,1.118-0.85,1.517-1.17,0.054-.04.1-0.09,0.135-0.11a7.782,7.782,0,0,0,.943-1.16,6.034,6.034,0,0,0,.354-0.8h0C627.57,2179.27,628.33,2179.34,629.081,2179.4Zm-18.612,1.29c-0.072-.01.021,0.04,0.082,0.07A0.1,0.1,0,0,0,610.469,2180.69Zm14.287-1.34c0.19,0.02.44,0,.627,0h0.056a1.327,1.327,0,0,0,.629-0.24l0.022-.01h0l-0.7-.09c-0.232-.04-0.466-0.07-0.7-0.1a0.361,0.361,0,0,1,.23.25C624.783,2179.21,624.548,2179.32,624.756,2179.35Zm-14.2,1.41s0,0,0,.01C610.622,2180.8,610.6,2180.78,610.552,2180.76Zm5.919-14.15a0.226,0.226,0,0,1,.028.03C616.515,2166.61,616.471,2166.61,616.471,2166.61Zm6.322,4.17h-0.04l-0.036.15c-0.167.62-.335,1.24-0.513,1.86,0.144,0,.278.01,0.278,0.01a0.4,0.4,0,0,0,.2-0.27,2.027,2.027,0,0,1,.159-0.43s0.041,0.01.112,0.02a0.714,0.714,0,0,0,.1-0.34,2.961,2.961,0,0,0-.125-0.5,5.292,5.292,0,0,1,.061-0.53Zm-0.835,2.84-0.084.28,0.129-.02s0.033,0.09.08,0.21a0.865,0.865,0,0,0,.05-0.12,1.286,1.286,0,0,0-.044-0.27A0.2,0.2,0,0,0,621.958,2173.62Zm1.639-6.02-0.04-.02c-0.092.38-.178,0.76-0.274,1.13a0.32,0.32,0,0,0,.283.06,3.35,3.35,0,0,0,.4.02c0.282,0,.327.04,0.377-0.08s0.065,0.06.065-.25a0.638,0.638,0,0,0-.246-0.53A2.4,2.4,0,0,0,623.6,2167.6Zm17.993,8.4c-0.844,3.16-10.019,3.54-21.66,1.21-3.811,11.27-8.724,19.05-11.871,18.2-1.985-.53-2.868-4.39-2.668-10.09,0.068,0.04.137,0.08,0.2,0.11a19.072,19.072,0,0,1-9.471-15.29c0.553,0.29,1.115.57,1.686,0.85,2.039,0.97,4.178,1.87,6.348,2.67H604.15l0.006,0.11-0.312.56-0.289.18,0.078,0.13,0.052,0.26h-0.159v0.58a0.523,0.523,0,0,0,.421.29l-0.131.08a1.219,1.219,0,0,0,.158.34,2.518,2.518,0,0,1,.289.58c0.053,0.18.131,0.7,0.131,0.7s0.343,0.58.5,0.82a7.612,7.612,0,0,1,.6.82c0.131,0.26.419,0.13,0.968,0.26a2.193,2.193,0,0,1,.784.31,5.225,5.225,0,0,0,.475.35,1.754,1.754,0,0,0,.863.1,2.626,2.626,0,0,1,.748.12l0.094,0.01a1.317,1.317,0,0,1,.812.36l0.027,0.01c0.163,0.07.249,0.11,0.3,0.13a2.217,2.217,0,0,1,.046.45c0.027,0.13.211-.03,0.342-0.03a0.5,0.5,0,0,1,.237.15,0.821,0.821,0,0,0,.128.06c0.234,0.08.287-.08,0.287-0.08l0.264,0.32,0.21,0.28-0.21.51-0.183.18a1.9,1.9,0,0,0,0-.43c-0.028-.18-0.183.09-0.183,0.09l-0.158.5,0.574,0.55,0.174,0.16,0.376,0.34,0.025,0.07,0.214,0.62-0.029.21,0.131,0.34a1.942,1.942,0,0,1-.316.1,0.485,0.485,0,0,1-.156.03,0.428,0.428,0,0,0-.245.18,1.844,1.844,0,0,0-.148.21,1.881,1.881,0,0,0,.148.24,0.87,0.87,0,0,0,.193.21c0.037,0.03.07,0.04,0.1,0.07a0.263,0.263,0,0,1,.085.02c-0.007.01-.013,0.02-0.019,0.03h0l-0.078.13h0c-0.228.4-.514,0.88-0.844,1.4a19.382,19.382,0,0,1-5.5-1.99c0,0.01.006,0.01,0.01,0.01,0.051,3.44.694,5.68,1.952,6.01,2.383,0.64,6.248-5.72,9.438-15.03-1.342-.3-2.7-0.63-4.087-1.01-14.6-3.92-25.635-10.13-24.637-13.86,0.533-1.99,4.374-2.88,10.062-2.68-0.066.12-.128,0.23-0.19,0.34a19.05,19.05,0,0,1,16.667-9.67H614.9c2.671-5.04,5.36-7.93,7.342-7.4,3.723,1,3.57,13.68-.343,28.32-0.365,1.39-.76,2.74-1.164,4.06,9.635,1.88,17.058,1.71,17.707-.68,0.336-1.26-1.273-2.93-4.223-4.7v-0.02a19.211,19.211,0,0,1-1.04,5.77c-0.61.03-1.169,0.04-1.622,0.04h0c-0.369,0-.659-0.01-0.831-0.02-0.5-.02-0.991-0.04-1.491-0.07a5.968,5.968,0,0,0,.18-0.67,2.756,2.756,0,0,1,.115-0.4l-0.586-.14-0.068-.38-0.247-.05-0.227.44a1.015,1.015,0,0,1-.854.51l0.065-.31a0.594,0.594,0,0,0-.336.04l-0.025-.29a0.707,0.707,0,0,0-.246-0.32,0.86,0.86,0,0,1-.3-0.27,1.178,1.178,0,0,1-.134-0.27,0.054,0.054,0,0,0-.02-0.02l0.033-.16s0.213-.23.389-0.44,0.236,0.21.418,0.36a0.405,0.405,0,0,1,.12.39,0.653,0.653,0,0,0,.268.06,0.233,0.233,0,0,1,.21.12l0.3,0.11,0.3-.33a0.29,0.29,0,0,1,.268-0.21c0.209,0,.033.27,0.033,0.43s0.149,0,.565-0.18a3.677,3.677,0,0,0,.627-0.37,0.563,0.563,0,0,0,.327-0.26,2.984,2.984,0,0,0,.271-0.24l0.327,0.21,0.362-.06,0.361-.21v0.27a0.5,0.5,0,0,0-.092.51c0.151,0.21.178,0.15,0.092,0.42a0.474,0.474,0,0,0,0,.42,0.789,0.789,0,0,1,.031.19,17.449,17.449,0,0,0-6.138-19c0.053-.67.093-1.33,0.121-1.99a19.13,19.13,0,0,1,8.472,15.91c0-.09,0-0.18,0-0.27C639.233,2171.32,642.122,2174.01,641.59,2176Zm-22.846-20.78s0.189-.11.282-0.15,0-.05-0.093-0.12a0.2,0.2,0,0,0-.215.06,0.557,0.557,0,0,0-.106.17c0,0.01-.01.02-0.014,0.03-0.052.06-.108-0.1-0.12-0.19a0.482,0.482,0,0,0-.349-0.03,0.937,0.937,0,0,1,.081.17s0.028,0.17.028,0.23a0.512,0.512,0,0,0,.053.27,1.587,1.587,0,0,0,.2.21l0.108-.07,0.038-.03,0.163-.27,0.134-.12Zm-2.144-1.19s0.022-.19.127-0.17a0.393,0.393,0,0,0,.21-0.25,0.311,0.311,0,0,0-.189-0.17c-0.106,0-.336.03-0.336,0.03l-0.064-.13a0.657,0.657,0,0,0-.295.04,0.148,0.148,0,0,1-.212-0.08l-0.021-.26-0.233.07-0.168-.15s-0.062-.13.042-0.13a2.343,2.343,0,0,1,.251.02l0.211-.15-0.084-.16,0.146-.17a0.389,0.389,0,0,0-.358-0.04,0.79,0.79,0,0,1-.3.19,0.3,0.3,0,0,0-.1-0.23c-0.124-.17.062-0.26-0.212-0.19a0.88,0.88,0,0,0-.37.17,0.5,0.5,0,0,0-.093.08,0.483,0.483,0,0,0-.312.17,0.523,0.523,0,0,0,.357.16,0.249,0.249,0,0,1,.048-0.05c0.055-.06.156-0.15,0.227-0.07a1.518,1.518,0,0,1,.187.23l-0.4.21-0.015-.01-0.2-.16h-0.4l-0.189.09-0.379.04a1.286,1.286,0,0,1,.064.29,0.375,0.375,0,0,1-.168.22l-0.225-.02-0.029-.01-0.233.17a0.893,0.893,0,0,0-.357.1,0.072,0.072,0,0,1-.054.03c-0.1.03-.2-0.04-0.2,0.1,0,0.17.02,0.25-.1,0.28a0.4,0.4,0,0,0-.1.02c-0.134.03-.3,0.06-0.3,0.06a0.879,0.879,0,0,0-.233.17,1.025,1.025,0,0,1-.337.17l-0.034-.01-0.386-.08-0.546.23-0.015.04-0.112.26-0.359.04a0.76,0.76,0,0,0-.315.26,0.24,0.24,0,0,1-.117.13,0.418,0.418,0,0,1-.093.06,0.987,0.987,0,0,0-.548.41l-0.087.19,0.15,0.22-0.337.04,0.04,0.16c0.168,0.17.275,0.26,0.379,0.17a0.5,0.5,0,0,1,.166-0.19c0.074-.03.208-0.07,0.324-0.11,0.084-.03.16-0.06,0.2-0.08a1.451,1.451,0,0,1,.4-0.19,1.8,1.8,0,0,0,.252-0.02l0.049-.04,0.287-.23,0.337,0.15,0.275-.04a0.188,0.188,0,0,0,.049.12,0.159,0.159,0,0,0,.079.04,1.258,1.258,0,0,0,.313.04,0.359,0.359,0,0,1,.253-0.14h0.376l0.043-.19,0.238,0.11,0.033,0.01,0.19,0.15s-0.084.02,0.126,0.11a0.514,0.514,0,0,0,.323.01,0.656,0.656,0,0,0,.078-0.04l0.359,0.09a0.413,0.413,0,0,0-.085-0.34,1.051,1.051,0,0,1-.314-0.1l0.231-.09,0.252-.04,0.064,0.28,0.4-.13-0.063-.23,0.021-.36,0.378,0.06,0.023,0.25a0.49,0.49,0,0,0,.155.05c0.089,0.03.181,0.03,0.181-.05,0-.15-0.084-0.25.021-0.25a1.679,1.679,0,0,0,.317-0.06l0.1-.15,0.149-.34,0.166,0.25,0.233-.15-0.043-.21,0.5-.23s0.3-.04.426-0.04a0.249,0.249,0,0,0,.165-0.04s0.084-.17-0.042-0.17A0.367,0.367,0,0,1,616.6,2154.03Zm-5.029,8.17-0.21.1,0.485,0.23,0.238,0.01,0.178,0.01a1.2,1.2,0,0,0,.151-0.42,0.212,0.212,0,0,1,.071-0.17c0.043-.03.108-0.06,0.2-0.12a0.2,0.2,0,0,0,.086-0.3,0.285,0.285,0,0,0-.287-0.07,0.118,0.118,0,0,0-.051.01l-0.349.17-0.031.02-0.167-.22-0.233.07-0.231.23a0.445,0.445,0,0,1,.149.02,0.63,0.63,0,0,1,.232,0c0.167,0.03-.042.17-0.042,0.17l-0.336.09Zm0.8-4.94-0.288.02h-0.008a1.172,1.172,0,0,0,.008.48c0,0.01.008,0.02,0.012,0.03a0.5,0.5,0,0,0,.388.27,0.733,0.733,0,0,0,.287-0.02c0.187-.04.244-0.05,0.255-0.05L613,2158a0.055,0.055,0,0,0,.025-0.01l0.13-.05,0.164-.07a0.568,0.568,0,0,0,.271-0.31c0-.15-0.233-0.1-0.421-0.1h-0.014c-0.173-.01-0.158-0.03-0.238-0.24s-0.085.13-.085,0.13a0.325,0.325,0,0,1-.166-0.21,1.316,1.316,0,0,1-.105-0.34l-0.075.04-0.237.13,0.062,0.12Zm-0.212,6.05s0.085,0.11.212,0.28c0.053,0.07.088,0.05,0.112,0a0.244,0.244,0,0,1,.116-0.17c0.1,0,.023.17,0.149,0.15a3.675,3.675,0,0,1,.4-0.02h0.008l0.181,0.21a0.534,0.534,0,0,0,.232-0.21c0.022-.11.022-0.11,0.19-0.11s0.105-.02.316-0.19-0.064-.31-0.233-0.4-0.024-.23-0.024-0.23l0.024-.3a1.752,1.752,0,0,0-.024-0.25c-0.021-.15-0.063-0.25-0.084-0.4a0.128,0.128,0,0,0-.167-0.11v-0.19a1.932,1.932,0,0,0,.421-0.04c0.1-.04,0-0.25,0-0.25s-0.25-.1-0.44-0.17-0.064-.1.252-0.12,0.042-.17.042-0.17l-0.252-.15a0.835,0.835,0,0,1-.337.25,0.341,0.341,0,0,0-.1.06,1.577,1.577,0,0,0-.091.26v0.17l0.091,0.15,0.056,0.1a1.176,1.176,0,0,1-.056.18,0.573,0.573,0,0,1-.07.14,0.245,0.245,0,0,0,.041.27,2.18,2.18,0,0,1-.041.43c-0.041.14-.361-0.13-0.361-0.13l-0.062.36h-0.292l0.042,0.19,0.072,0.05,0.116,0.1,0.124,0.19-0.24-.09-0.114-.04Zm-3.3-9.51-0.359.38a1.926,1.926,0,0,0,.422.04,2.106,2.106,0,0,0,.408-0.25c0.128-.09.256-0.17,0.351-0.23a0.39,0.39,0,0,1,.316-0.11l0.085,0.17-0.507.3,0.591-.09,0.07-.06,0.227-.21,0.233-.28,0.357,0.02,0.134-.05,0.306-.11a1.357,1.357,0,0,0,.361-0.36c0.081-.15.137-0.07,0.238-0.04a0.163,0.163,0,0,0,.1,0c0.166-.04.085-0.19,0.085-0.34,0-.07.1-0.08,0.22-0.08a0.665,0.665,0,0,0,.329-0.03c0.124-.09-0.1-0.25-0.274-0.3l-0.055-.01a0.208,0.208,0,0,1-.22-0.18,0.146,0.146,0,0,0-.18-0.09,0.469,0.469,0,0,0-.239.07c-0.125.09-.377,0.11-0.3-0.06a0.288,0.288,0,0,1,.045-0.05,15.469,15.469,0,0,0-1.951.53c0.147-.01.209,0,0.3,0,0.126,0-.127.15-0.127,0.15a2.447,2.447,0,0,0-.485.22l-0.012.01a0.228,0.228,0,0,0-.049.22h0.049a2.493,2.493,0,0,0,.265-0.02,1.759,1.759,0,0,0,.461-0.24,1.113,1.113,0,0,1,.175-0.09,1.226,1.226,0,0,0,.182-0.08c0.147-.08.04,0.24,0.04,0.24l0.4-.15,0.324-.02H611.3l0.126-.24-0.244-.05-0.134-.03,0.127-.13h0.007a3.608,3.608,0,0,1,.539.03c0.128,0.01,0,.16,0,0.16l-0.04.17-0.147.27a2.622,2.622,0,0,1-.337.03h-0.015a0.612,0.612,0,0,0-.3.16l-0.295.21h-0.423l-0.064.24-0.337-.04a1.575,1.575,0,0,1-.062-0.26c-0.023-.15-0.167,0-0.167,0a0.75,0.75,0,0,1-.2.36,0.157,0.157,0,0,1-.093.04A0.835,0.835,0,0,0,608.859,2153.8Zm4.584-2.23c-0.181.01-.361,0.03-0.54,0.05a0.333,0.333,0,0,0,.1.03c0.125,0.02.021,0.06,0.021,0.16,0,0.07.031,0.1,0.134,0.12,0.053,0.01.125,0.02,0.227,0.03,0.295,0.04.1-.08,0.062-0.33A0.227,0.227,0,0,1,613.443,2151.57Zm-1.135.24a0.486,0.486,0,0,0,.04-0.1c-0.031,0-.06.01-0.091,0.01A0.173,0.173,0,0,1,612.308,2151.81Zm2.411-.33a0.306,0.306,0,0,0-.033.17c0.022,0.19.063,0,.19-0.04a0.144,0.144,0,0,0,.108-0.13h-0.265Zm-12.332,5.59,0.265,0.02,0.336-.21,0.337,0.1-0.19.09a2.6,2.6,0,0,0-.231.4,0.721,0.721,0,0,0,.5.1,2.61,2.61,0,0,0,.147-0.57,0.67,0.67,0,0,1,.441-0.27l0.125-.34,0.213,0.15a0.784,0.784,0,0,0,.1-0.34,0.683,0.683,0,0,0-.4-0.13l0.376-.18,0.379,0.1-0.085.74h0.378l0.084,0.13a3.6,3.6,0,0,1-.631.29,0.977,0.977,0,0,0-.337.28l-0.209.23a0.446,0.446,0,0,0,.251.17,0.172,0.172,0,0,1,.165.14,0.345,0.345,0,0,0,.233-0.21,0.172,0.172,0,0,0-.085-0.16s0.187-.22.315-0.36,0.8-.45.925-0.59a0.192,0.192,0,0,0,.04-0.25l0.316-.2s0.085-.4.126-0.5a6.085,6.085,0,0,1,.8-0.55,1.637,1.637,0,0,1,.777-0.36c0.423-.1.128-0.15,0.1-0.27s-0.357.16-.357,0.16l-0.5-.15a0.76,0.76,0,0,0,.42-0.16,0.5,0.5,0,0,1,.315-0.11c0.15-.06.105-0.12,0.105-0.12h0.232a2.5,2.5,0,0,0,.3-0.36c0.1-.17.337-0.49,0.337-0.49s-0.525.3-.632,0.34a1.436,1.436,0,0,1-.4-0.04,4,4,0,0,0-.526.29c-0.211.09-.442,0.22-0.442,0.22l-0.313-.07-0.252.11-0.61.25a3.743,3.743,0,0,1,.359-0.23l0.5-.3,0.4-.1,0.033-.21c-0.161.09-.32,0.17-0.483,0.26A17.773,17.773,0,0,0,602.387,2157.07Zm15.835,17.17c0.424-1.35.832-2.75,1.215-4.19,3.409-12.74,3.8-23.71.885-24.49-1.257-.34-2.924,1.27-4.687,4.23h-0.056a19.022,19.022,0,0,1,5.793,1.05c0.035,0.61.038,1.17,0.036,1.62h0c0,0.37-.006.67-0.013,0.84-0.057,1.6-.2,3.24-0.413,4.89a1.09,1.09,0,0,0-.246-0.06,0.771,0.771,0,0,0-.229,0,1.509,1.509,0,0,1-.258-0.27,0.811,0.811,0,0,0-.471-0.3c-0.262-.09-0.243.1-0.243,0.1a0.912,0.912,0,0,1-.558.14,0.378,0.378,0,0,0-.38.33h0l-0.226.19a0.422,0.422,0,0,1-.262.21,0.738,0.738,0,0,0-.243.04,2.163,2.163,0,0,0-.069.4,0.163,0.163,0,0,1-.14.16,1.715,1.715,0,0,0-.3.08c-0.121.05-.243,0.13-0.366,0.19a2.006,2.006,0,0,1-.313.27c-0.243.13-.33,0.19-0.33,0.19l-0.331.07,0.172,0.17-0.261.05a0.841,0.841,0,0,0,.016.28,0.393,0.393,0,0,0,.3.14,1.894,1.894,0,0,1-.385.23c-0.21.09-.21,0.12-0.192,0.21a0.6,0.6,0,0,0,.486.37c0.352,0.09.105-.02,0.261-0.11a1.8,1.8,0,0,1,.33-0.14,1.6,1.6,0,0,1,.213.51c0,0.15-.053.45-0.034,0.56s0.19-.04.19-0.04l-0.156.18s0.033,0.31.033,0.4,0.31,0.03.31-.05a0.442,0.442,0,0,1,.433-0.25c0.26-.01.228-0.05,0.228-0.26a3.35,3.35,0,0,1,.051-0.49l0.3-.08s0.169-.13.282-0.24a0.4,0.4,0,0,0,.068-0.08c0.036-.05-0.006-0.11-0.068-0.16s-0.119-.09-0.161-0.13a0.992,0.992,0,0,1-.121-0.54,0.687,0.687,0,0,1,.02-0.23,0.273,0.273,0,0,1,.262-0.15,0.041,0.041,0,0,0,.032-0.01c0.122-.03.278-0.24,0.5-0.35s-0.122-.12-0.122-0.12,0.036-.19.07-0.35,0.486,0.05.486,0.05l0.175,0.21-0.209.16-0.24.36-0.347.46,0.279,0.73a0.915,0.915,0,0,0,.4.1,0.863,0.863,0,0,0,.435-0.19,1.884,1.884,0,0,1,.509-0.15l-0.081.49a2.514,2.514,0,0,1-.366-0.04,4.792,4.792,0,0,0-.59.15c-0.248.03-.1,0.2-0.1,0.32a0.661,0.661,0,0,0,.346.28l-0.271.17a0.422,0.422,0,0,0-.368-0.25,0.844,0.844,0,0,0-.3.47,0.543,0.543,0,0,0,.1.5,1.026,1.026,0,0,0-.34.11l-0.056.03c-0.171.12-.221,0.03-0.221,0.03a0.337,0.337,0,0,0-.221-0.15,2.216,2.216,0,0,0-.424.24,1.91,1.91,0,0,1-.542,0l-0.273-.29-0.226.22a0.689,0.689,0,0,1-.321-0.2c-0.118-.15,0-0.12-0.025-0.24s-0.073-.13-0.073-0.13l0.123-.19,0.321-.2a1.074,1.074,0,0,0-.075-0.64c-0.149-.2-0.149.2-0.149,0.2l-0.494.32,0.026,0.66-0.1.3-0.192-.05-0.123.15a3.17,3.17,0,0,0-.318-0.15,0.815,0.815,0,0,0-.545.25l-0.044.11-0.079.18-0.271-.05-0.148.18h-0.3c-0.126,0-.049.22-0.049,0.22a0.581,0.581,0,0,1-.181.14l-0.043-.06a0.269,0.269,0,0,0-.268.07,0.607,0.607,0,0,1-.158.07l-0.131.02-0.126-.32s-0.09-.17-0.177-0.04a0.249,0.249,0,0,0-.056.22l0.037,0.22-0.18.02-0.035-.02-0.09-.02-0.311-.19-0.047-.03s-0.215-.03-0.176.11,0.215,0.32.215,0.41a0.061,0.061,0,0,0,.011.03,0.6,0.6,0,0,1,.313.15,0.512,0.512,0,0,1-.165.28,0.367,0.367,0,0,1,.127.27,1.939,1.939,0,0,1-.074.5c-0.035.1-.124,0.07-0.161,0.18a0.447,0.447,0,0,1-.043.08,1.28,1.28,0,0,1-.135.19,0.9,0.9,0,0,1-.361.03,1.789,1.789,0,0,0-.324-0.2,0.131,0.131,0,0,0-.088,0,0.214,0.214,0,0,1-.233-0.07,1.964,1.964,0,0,0-.432-0.25,0.428,0.428,0,0,1-.215-0.18s-0.029-.02-0.066-0.04a0.74,0.74,0,0,0-.222-0.08,0.507,0.507,0,0,0-.233.16,0.834,0.834,0,0,1,0,.32,0.434,0.434,0,0,1-.071.34c-0.106.08-.127,0.02-0.144,0.17s0.072,0.07-.071.21a2.308,2.308,0,0,1-.163.2,0.06,0.06,0,0,0-.035.02,0.558,0.558,0,0,0-.289.22,0.8,0.8,0,0,0-.125.43,2.332,2.332,0,0,0,.393.57l0.056,0.02a0.192,0.192,0,0,1,.163.15c0,0.13-.148.18,0,0.27a1.642,1.642,0,0,1,.16.16,3.331,3.331,0,0,0,.581.14c0.294,0.06.586,0.11,0.586,0.11l0.2-.14h0.341l0.089-.31,0.27-.01,0.019-.29s-0.035-.29.053-0.29a1.372,1.372,0,0,0,.3-0.15c0.124-.08.239-0.16,0.239-0.16s0.068,0.01.161,0.03a0.76,0.76,0,0,0,.378-0.01,2.537,2.537,0,0,0,.289-0.36,0.783,0.783,0,0,1,0-.33,0.071,0.071,0,0,1,.065-0.05,1.092,1.092,0,0,1,.594.13,0.886,0.886,0,0,0,.484.23,1.139,1.139,0,0,0,.35-0.19l0.044-.03c0.039-.03.146-0.1,0.262-0.19a0.015,0.015,0,0,0,.008.01,0.523,0.523,0,0,1,.322.17,0.8,0.8,0,0,1,.072.5,0.739,0.739,0,0,0,.323.38c0.089,0.1.523,0.68,0.665,0.86s0.431,0.5.431,0.5l0.144,0.34-0.3.22a3.529,3.529,0,0,1-.433-0.05,0.193,0.193,0,0,0-.2.07,1.541,1.541,0,0,1-.234-0.18c-0.162-.14-0.052.02-0.251,0.13s0.251,0.27.362,0.36a3.011,3.011,0,0,1,.319.34c0.072,0.09.253-.03,0.253-0.18a2.23,2.23,0,0,1,.018-0.27h0.321l0.2-.23,0.165-.14,0.072-.2-0.127-.36a1.5,1.5,0,0,1,.3-0.08,0.46,0.46,0,0,1,.181.27l0.093,0.04a0.834,0.834,0,0,0-.054-0.31,2.061,2.061,0,0,0-.341-0.3,3.123,3.123,0,0,1-.418-0.2,4.2,4.2,0,0,1-.411-0.64,0.47,0.47,0,0,1-.053-0.31,2.863,2.863,0,0,0-.271-0.32,0.591,0.591,0,0,1-.05-0.31l0.341-.21a0.3,0.3,0,0,0,.1-0.08,0.892,0.892,0,0,1,.259.42,1.533,1.533,0,0,0,.107.45,0.8,0.8,0,0,0,.539.25c0.289,0.05.2,0.25,0.2,0.25a1.551,1.551,0,0,1,.3.54c0.033,0.22.033,0.32,0.053,0.59a1.8,1.8,0,0,0,.232.56c0.091,0.25.124,0.25,0.18,0.45,0.025,0.09.042,0.18,0.074,0.27-0.177.66-.366,1.33-0.565,2a1.961,1.961,0,0,0-.288.72,0.316,0.316,0,0,1-.133.05h0l-0.374-.09h0a4.807,4.807,0,0,0-.854-0.43,4.841,4.841,0,0,1-.42-0.66,0.273,0.273,0,0,0-.315-0.08,1.726,1.726,0,0,1-.63-0.23c-0.056-.07-0.15-0.18-0.225-0.26s-0.118-.14-0.118-0.14a1.144,1.144,0,0,1,.118-0.1,0.755,0.755,0,0,1,.249-0.16c0.131-.03-0.052-0.29-0.211-0.55s0.42-.35.393-0.48a0.761,0.761,0,0,0-.432-0.2l-0.014-.01a1.093,1.093,0,0,0-.522,0l-0.5-.1s-0.158.05-.288,0.1a0.212,0.212,0,0,1-.17-0.02,0.594,0.594,0,0,1-.3-0.3,0.365,0.365,0,0,0-.368-0.12,0.523,0.523,0,0,1-.208-0.06,0.4,0.4,0,0,0-.192-0.06c-0.116.01-.222,0.07-0.359,0.09-0.171.02-.4,0.08-0.55,0.1-0.032,0-.058.01-0.081,0.01a1.111,1.111,0,0,0-.472.21c-0.184.1-.234-0.29-0.234-0.29a0.948,0.948,0,0,1-.16-0.02,2.652,2.652,0,0,1-.472-0.14c-0.393-.16-0.211-0.4-0.211-0.4s-0.072.06-.221,0.19a1.709,1.709,0,0,1-.169.15,0.677,0.677,0,0,1-.578.32,0.809,0.809,0,0,0-.524.16,2.864,2.864,0,0,0-.513.72,62.924,62.924,0,0,1-9.008-3.82c-0.121-.07-0.318-0.18-0.56-0.31h0c-0.414-.24-0.965-0.56-1.552-0.94a19.193,19.193,0,0,1,2.007-5.58c-0.015.03-.029,0.05-0.036,0.07-3.436.05-5.663,0.7-6,1.96-0.78,2.92,8.889,8.06,21.6,11.48Q616.151,2173.775,618.222,2174.24Zm-3.862-5.38a0.29,0.29,0,0,0-.087.23,0.348,0.348,0,0,0,.159.1,0.557,0.557,0,0,0,.218-0.01c0.042-.01.1-0.03,0.152-0.04,0.173-.05.069-0.14,0.1-0.26a1.6,1.6,0,0,1,.1-0.41c0.07-.12-0.142-0.21-0.142-0.21s-0.163.23-.222,0.32l-0.006.01A0.829,0.829,0,0,1,614.36,2168.86Zm0.289-.95a0.476,0.476,0,0,0,.346-0.18c0.05-.14.033-0.07,0.088-0.23s-0.142.05-.142,0.05l-0.23.14-0.062.14-0.041.09A0.134,0.134,0,0,0,614.649,2167.91Z" transform="translate(-588.656 -2142.31)"/>
        </symbol>

 <symbol id="carrot" viewbox="0 0 55 55" >
            <path fill-rule="evenodd" 
            d="M54.000,15.897 C51.029,16.449 47.687,17.829 46.115,18.531 C45.611,17.751 45.029,17.031 44.357,16.359 L39.484,11.488 C38.812,10.822 38.086,10.234 37.312,9.736 C38.014,8.158 39.394,4.817 39.946,1.847 C40.138,0.815 41.476,0.521 42.094,1.367 C43.150,2.818 44.195,4.685 43.883,6.082 L51.107,3.185 C52.085,2.789 53.064,3.767 52.668,4.744 L49.763,11.961 C51.161,11.650 53.028,12.694 54.480,13.749 C55.332,14.367 55.032,15.705 54.000,15.897 ZM42.730,17.985 C47.231,22.490 46.769,29.726 42.172,33.697 L31.893,27.812 L37.054,36.823 L18.248,47.388 L11.503,43.752 L14.575,49.451 L5.424,54.593 C4.914,54.875 4.398,55.001 3.906,55.001 C1.758,55.001 0.012,52.613 1.248,50.411 L13.021,29.468 L21.368,34.531 L15.560,24.956 L20.912,15.447 C22.922,11.871 26.583,9.970 30.285,9.970 C32.997,9.970 35.734,10.989 37.858,13.114 L42.730,17.985 Z"/> 
        </symbol>

<symbol id="marketCart" viewbox="0 0 47 44">
            <path fill-rule="evenodd" 
                d="M44.423,33.041 L18.236,33.041 C15.193,33.041 12.521,31.094 11.586,28.196 L4.378,5.844 C4.346,5.746 4.256,5.680 4.153,5.680 L2.577,5.680 C1.236,5.680 0.150,4.594 0.150,3.252 C0.150,1.911 1.236,0.823 2.577,0.823 L4.153,0.823 C6.371,0.823 8.318,2.243 8.998,4.355 L16.207,26.707 C16.491,27.589 17.308,28.184 18.236,28.184 L44.423,28.184 C45.764,28.184 46.850,29.271 46.850,30.612 C46.850,31.954 45.764,33.041 44.423,33.041 ZM41.802,23.959 C41.623,24.704 40.956,25.230 40.190,25.230 L19.887,25.230 C19.166,25.230 18.528,24.764 18.308,24.076 L13.317,8.469 C13.058,7.659 13.201,6.774 13.702,6.084 C14.204,5.398 15.004,4.991 15.855,4.991 L42.972,4.991 C43.788,4.991 44.559,5.366 45.064,6.006 C45.569,6.647 45.753,7.485 45.563,8.279 L41.802,23.959 ZM19.957,35.837 C22.094,35.837 23.828,37.571 23.828,39.710 C23.828,41.850 22.094,43.582 19.957,43.582 C17.819,43.582 16.086,41.850 16.086,39.710 C16.086,37.571 17.819,35.837 19.957,35.837 ZM40.286,35.837 C42.424,35.837 44.157,37.571 44.157,39.710 C44.157,41.850 42.424,43.582 40.286,43.582 C38.149,43.582 36.416,41.850 36.416,39.710 C36.416,37.571 38.149,35.837 40.286,35.837 Z" />
        </symbol>
     
        
</svg>